<?xml version="1.0" encoding="utf-8"?>
<!-- Generator: Adobe Illustrator 25.4.1, SVG Export Plug-In . SVG Version: 6.00 Build 0)  -->
<svg version="1.1" id="Слой_1" xmlns="http://www.w3.org/2000/svg" xmlns:xlink="http://www.w3.org/1999/xlink" x="0px" y="0px"
	 viewBox="0 0 20 20" style="enable-background:new 0 0 20 20;" xml:space="preserve">
<path d="M10,18.8c-4.8,0-8.8-3.9-8.8-8.8S5.2,1.2,10,1.2s8.8,3.9,8.8,8.8S14.8,18.8,10,18.8z M10,20c5.5,0,10-4.5,10-10S15.5,0,10,0
	S0,4.5,0,10S4.5,20,10,20z"/>
<path d="M14.4,10.6H5.6c-0.3,0-0.6-0.3-0.6-0.6V9.9c0-0.3,0.3-0.6,0.6-0.6h8.8c0.3,0,0.6,0.3,0.6,0.6v0.1
	C15,10.4,14.7,10.6,14.4,10.6z"/>
</svg>
