<svg version="1.1" id="Layer_1" xmlns="http://www.w3.org/2000/svg" x="0" y="0" viewBox="0 0 128 128" xml:space="preserve"><style>.st2{fill:#c05447}.st3{fill:#e6e6e5}.st4{fill:#cdcccc}.st5{fill:#cd584c}.st6{fill:#b44f43}</style><circle cx="64" cy="64" r="64" fill="#2d4552"/><path d="M122 91.1L100 37h-3.5v-.1l-.2-.5-.2-.5-.2-.5-.2-.5-.2-.5-.2-.5-.2-.5-.2-.5-.2-.5-.2-.5-.2-.5-.3-.6-.2-.5-.2-.5-.2-.5-.2-.5-.2-.5-.2-.5-.2-.5-.2-.5-.2-.5-.2-.6-.2-.5-.2-.5-.2-.5-.2-.5-.2-.5-.2-.5v.1-.1s-2.6-3.6-5.7-3.6c-6.3 0-9.7 8.8-16.2 11.9-.6-1.2-1.6-2-2.9-2h-4c-1.3 0-2.3.8-2.8 1.9C52.7 27.8 49.3 19 43 19c-3.1 0-5.7 3.6-5.7 3.6l-3.4 8.8-.4 1-.1.2c0 .4.1.7.2 1 0 .4.2.8.4 1.1.1.4.2.7.4 1 .1.4.2.7.4 1 0 .1 0 .2.1.3h-7v14l3 6v46l8.7 20.2c7.5 3.1 15.7 4.8 24.3 4.8 25.8 0 47.9-15.1 58.1-36.9z" fill="#243641"/><path class="st2" d="M33.5 32.5l.1-.1h-.1v.1z"/><path class="st3" d="M31 50.5h66v52H31z"/><path class="st4" d="M31 50.5h66v2H31z"/><path class="st4" d="M93 50.5h4v52h-4z"/><path class="st3" d="M28 36.5h72v14H28z"/><path class="st4" d="M96 36.5h4v14h-4z"/><path class="st5" d="M52 36.5h8v66h-8z"/><path class="st2" d="M52 50.5h8v2h-8z"/><path class="st5" d="M68 36.5h8v66h-8z"/><path class="st2" d="M68 50.5h8v2h-8z"/><path class="st6" d="M64 34.9C45 33 38.6 27.1 37.3 22.6l-3.8 9.9C33.5 39 56.2 37 60 37h4v-2.1z"/><path class="st5" d="M64 35.4c-9.7 3-20.7-10.5-30.5-3v.1l3.9-10s2.6-3.6 5.7-3.6c7.7 0 11 13 21 13-.1 1.6-.1 3.5-.1 3.5z"/><path class="st6" d="M64 34.9c19-1.9 25.4-7.8 26.7-12.3l3.8 9.9C94.5 39 71.8 37 68 37h-4v-2.1z"/><path class="st5" d="M64 35.4c9.7 3 20.7-10.5 30.5-3v.1l-3.9-10s-2.6-3.6-5.7-3.6c-7.7 0-11 13-21 13 .1 1.6.1 3.5.1 3.5z"/><path class="st5" d="M69 33.5c0 1.7-1.3 3-3 3h-4c-1.7 0-3-1.3-3-3v-2c0-1.7 1.3-3 3-3h4c1.7 0 3 1.3 3 3v2z"/><path class="st2" d="M69 29.5c0-.6-.4-1-1-1s-1 .4-1 1v6c0 .6.4 1 1 1s1-.4 1-1v-6z"/></svg>5" class="st4" width="66" height="2"/>
		<rect x="93" y="50.5" class="st4" width="4" height="52"/>
		<rect x="28" y="36.5" class="st3" width="72" height="14"/>
		<rect x="96" y="36.5" class="st4" width="4" height="14"/>
		<rect x="52" y="36.5" class="st5" width="8" height="66"/>
		<rect x="52" y="50.5" class="st2" width="8" height="2"/>
		<rect x="68" y="36.5" class="st5" width="8" height="66"/>
		<rect x="68" y="50.5" class="st2" width="8" height="2"/>
		<path class="st6" d="M64,34.9C45,33,38.6,27.1,37.3,22.6l-3.8,9.9C33.5,39,56.2,37,60,37h4C64,37,64,35.9,64,34.9z"/>
		<path class="st5" d="M64,35.4c-9.7,3-20.7-10.5-30.5-3l0,0.1l3.9-10c0,0,2.6-3.6,5.7-3.6c7.7,0,11,13,21,13
			C64,33.5,64,35.4,64,35.4L64,35.4z"/>
		<path class="st6" d="M64,34.9c19-1.9,25.4-7.8,26.7-12.3l3.8,9.9C94.5,39,71.8,37,68,37h-4C64,37,64,35.9,64,34.9z"/>
		<path class="st5" d="M64,35.4c9.7,3,20.7-10.5,30.5-3l0,0.1l-3.9-10c0,0-2.6-3.6-5.7-3.6c-7.7,0-11,13-21,13
			C64,33.5,64,35.4,64,35.4L64,35.4z"/>
		<path class="st5" d="M69,33.5c0,1.7-1.3,3-3,3h-4c-1.7,0-3-1.3-3-3v-2c0-1.7,1.3-3,3-3h4c1.7,0,3,1.3,3,3V33.5z"/>
		<path class="st2" d="M69,29.5c0-0.6-0.4-1-1-1l0,0c-0.6,0-1,0.4-1,1v6c0,0.6,0.4,1,1,1l0,0c0.6,0,1-0.4,1-1V29.5z"/>
	</g>
</g>
</svg>
