<svg width="27" height="27" xmlns="http://www.w3.org/2000/svg" viewBox="0 0 53 53"><path d="M26.5 9c-8.837 0-16 7.164-16 16 0 7.089 4.615 13.091 11 15.192V50h2v3h6v-3h2v-9.808c6.385-2.101 11-8.103 11-15.192 0-8.836-7.163-16-16-16zm0-9a1 1 0 00-1 1v4a1 1 0 102 0V1a1 1 0 00-1-1zm24 24h-4a1 1 0 100 2h4a1 1 0 100-2zm-44 0h-4a1 1 0 100 2h4a1 1 0 100-2zM42.764 7.322l-2.828 2.828a.999.999 0 101.414 1.414l2.828-2.828a.999.999 0 10-1.414-1.414zM11.65 38.436l-2.828 2.828a.999.999 0 101.414 1.414l2.828-2.828a.999.999 0 10-1.414-1.414zm29.7 0a.999.999 0 10-1.414 1.414l2.828 2.828a.997.997 0 001.414 0 .999.999 0 000-1.414l-2.828-2.828zM10.236 7.322a.999.999 0 10-1.414 1.414l2.828 2.828a.997.997 0 001.414 0 .999.999 0 000-1.414l-2.828-2.828z" fill="#efce4a"/><path d="M15.5 26a1 1 0 01-1-1c0-6.617 5.383-12 12-12a1 1 0 110 2c-5.514 0-10 4.486-10 10a1 1 0 01-1 1z" fill="#f7e6a1"/><path fill="#556080" d="M21.5 43v7h2v3h6v-3h2v-7z"/></svg><path style="fill:#EFCE4A;" d="M42.764,7.322l-2.828,2.828c-0.391,0.391-0.391,1.023,0,1.414c0.195,0.195,0.451,0.293,0.707,0.293
		s0.512-0.098,0.707-0.293l2.828-2.828c0.391-0.391,0.391-1.023,0-1.414S43.154,6.932,42.764,7.322z"/>
	<path style="fill:#EFCE4A;" d="M11.65,38.436l-2.828,2.828c-0.391,0.391-0.391,1.023,0,1.414c0.195,0.195,0.451,0.293,0.707,0.293
		s0.512-0.098,0.707-0.293l2.828-2.828c0.391-0.391,0.391-1.023,0-1.414S12.041,38.045,11.65,38.436z"/>
	<path style="fill:#EFCE4A;" d="M41.35,38.436c-0.391-0.391-1.023-0.391-1.414,0s-0.391,1.023,0,1.414l2.828,2.828
		c0.195,0.195,0.451,0.293,0.707,0.293s0.512-0.098,0.707-0.293c0.391-0.391,0.391-1.023,0-1.414L41.35,38.436z"/>
	<path style="fill:#EFCE4A;" d="M10.236,7.322c-0.391-0.391-1.023-0.391-1.414,0s-0.391,1.023,0,1.414l2.828,2.828
		c0.195,0.195,0.451,0.293,0.707,0.293s0.512-0.098,0.707-0.293c0.391-0.391,0.391-1.023,0-1.414L10.236,7.322z"/>
</g>
<path style="fill:#F7E6A1;" d="M15.5,26c-0.553,0-1-0.447-1-1c0-6.617,5.383-12,12-12c0.553,0,1,0.447,1,1s-0.447,1-1,1
	c-5.514,0-10,4.486-10,10C16.5,25.553,16.053,26,15.5,26z"/>
<polygon style="fill:#556080;" points="21.5,43 21.5,50 23.5,50 23.5,53 29.5,53 29.5,50 31.5,50 31.5,43 "/>
<g>
</g>
<g>
</g>
<g>
</g>
<g>
</g>
<g>
</g>
<g>
</g>
<g>
</g>
<g>
</g>
<g>
</g>
<g>
</g>
<g>
</g>
<g>
</g>
<g>
</g>
<g>
</g>
<g>
</g>
</svg>
