<svg id="Layer_1" data-name="Layer 1" xmlns="http://www.w3.org/2000/svg" viewBox="0 0 16.1 38.5">
  <defs>
    <style>
      .cls-1 {
        fill: #473d00;
      }
    </style>
  </defs>
  <path class="cls-1" d="M19.9.8A3.2,3.2,0,0,1,23.1,4a3.2,3.2,0,0,1-3.2,3.2A3.3,3.3,0,0,1,16.7,4,3.2,3.2,0,0,1,19.9.8ZM24,8H16a3.9,3.9,0,0,0-4,4v9.8a1.4,1.4,0,0,0,1.4,1.4,1.4,1.4,0,0,0,1.4-1.4v-9a.4.4,0,0,1,.8,0V37a2.1,2.1,0,0,0,2,2.2,2.1,2.1,0,0,0,2-2.2V23.2a.4.4,0,0,1,.8,0V37a2.1,2.1,0,0,0,2,2.2,2.1,2.1,0,0,0,2-2.2V12.8a.4.4,0,0,1,.8,0v9a1.4,1.4,0,1,0,2.8,0V12A4.1,4.1,0,0,0,24,8Z" transform="translate(-12 -0.8)"/>
</svg>
