<?xml version="1.0" encoding="utf-8"?>
<!-- Generator: Adobe Illustrator 25.4.1, SVG Export Plug-In . SVG Version: 6.00 Build 0)  -->
<svg version="1.1" id="Layer_1" xmlns="http://www.w3.org/2000/svg" xmlns:xlink="http://www.w3.org/1999/xlink" x="0px" y="0px"
	 viewBox="0 0 16.1 38.5" style="enable-background:new 0 0 16.1 38.5;" xml:space="preserve">
<path d="M7.9,0c1.8,0,3.2,1.4,3.2,3.2c0,0,0,0,0,0c0,1.8-1.4,3.2-3.2,3.2l0,0C6.2,6.3,4.8,4.9,4.7,3.2C4.7,1.4,6.1,0,7.9,0z M12,7.2
	H4C1.8,7.1,0.1,8.8,0,11c0,0.1,0,0.1,0,0.2V21c0,0.8,0.6,1.4,1.4,1.4s1.4-0.6,1.4-1.4v-9c0-0.2,0.2-0.4,0.4-0.4
	c0.2,0,0.4,0.2,0.4,0.4l0,0v24.2c-0.1,1.2,0.8,2.1,2,2.2c0,0,0,0,0,0c1.2-0.1,2.1-1,2-2.2c0,0,0,0,0,0V22.4C7.6,22.2,7.8,22,8,22
	c0.2,0,0.4,0.2,0.4,0.4v13.8c-0.1,1.2,0.8,2.1,2,2.2c0,0,0,0,0,0c1.2-0.1,2.1-1,2-2.2c0,0,0,0,0,0V12c0-0.2,0.2-0.4,0.4-0.4
	c0.2,0,0.4,0.2,0.4,0.4v9c0,0.8,0.6,1.4,1.4,1.4S16,21.8,16,21c0,0,0,0,0,0v-9.8C15.9,9,14.2,7.3,12,7.2z"/>
</svg>
