<svg xmlns="http://www.w3.org/2000/svg" width="76mm" height="76mm" viewBox="0 0 7600 7600" xmlns:xlink="http://www.w3.org/1999/xlink" shape-rendering="geometricPrecision" text-rendering="geometricPrecision" image-rendering="optimizeQuality" fill-rule="evenodd" clip-rule="evenodd"><defs><linearGradient id="b" gradientUnits="userSpaceOnUse" x1="3955.97" y1="24.82" x2="3664.41" y2="7605.42"><stop offset="0" stop-color="#f70d18"/><stop offset=".722" stop-color="#f6353e"/><stop offset="1" stop-color="#f55d65"/></linearGradient><linearGradient id="h" gradientUnits="userSpaceOnUse" x1="2764.75" y1="2240.76" x2="2287.74" y2="3585.92"><stop offset="0" stop-opacity="0" stop-color="#ffc200"/><stop offset=".2" stop-opacity=".204" stop-color="#fb0"/><stop offset=".941" stop-opacity=".851" stop-color="#f80"/><stop offset=".949" stop-opacity=".498" stop-color="#ffa700"/><stop offset="1" stop-color="#ff7800"/></linearGradient><linearGradient id="a" gradientUnits="userSpaceOnUse" x1="4545.24" y1="2374.31" x2="1089.15" y2="3862.59"><stop offset="0" stop-opacity="0" stop-color="#ffc200"/><stop offset=".2" stop-opacity=".204" stop-color="#fb0"/><stop offset=".502" stop-opacity=".498" stop-color="#ffa700"/><stop offset=".851" stop-opacity=".851" stop-color="#f80"/><stop offset="1" stop-color="#ff7800"/></linearGradient><linearGradient id="f" gradientUnits="userSpaceOnUse" xlink:href="#a" x1="3022.33" y1="5843.23" x2="4606" y2="4270.69"/><linearGradient id="c" gradientUnits="userSpaceOnUse" x1="3534.53" y1="1841.16" x2="3534.53" y2="6800.06"><stop offset="0" stop-color="#ffcf95"/><stop offset=".431" stop-color="#ffc954"/><stop offset="1" stop-color="#ffc200"/></linearGradient><linearGradient id="e" gradientUnits="userSpaceOnUse" xlink:href="#a" x1="4972.53" y1="4807.06" x2="4573.74" y2="2813.16"/><linearGradient id="d" gradientUnits="userSpaceOnUse" xlink:href="#a" x1="4720.49" y1="2469.72" x2="3194.05" y2="2469.72"/><linearGradient id="g" gradientUnits="userSpaceOnUse" x1="1880.05" y1="3901.16" x2="3086.21" y2="4778.02"><stop offset="0" stop-opacity="0" stop-color="#ffc200"/><stop offset=".412" stop-opacity=".204" stop-color="#fb0"/><stop offset=".949" stop-opacity=".529" stop-color="#ffa200"/><stop offset=".969" stop-opacity=".851" stop-color="#f80"/><stop offset=".976" stop-opacity=".675" stop-color="#ff9700"/><stop offset=".98" stop-opacity=".498" stop-color="#ffa700"/><stop offset="1" stop-color="#ff990d"/></linearGradient></defs><g fill-rule="nonzero"><path d="M7603.3 3815.12c-.01-2094.87-1698.24-3793.11-3793.11-3793.1-2094.87 0-3793.11 1698.23-3793.11 3793.1.01 2094.87 1698.24 3793.11 3793.11 3793.11 2094.87-.01 3793.11-1698.24 3793.11-3793.11z" fill="url(#b)"/><path d="M4001.05 1445.99L4690 2842.2l1540.72 223.89c175.04 25.44 245.25 241.18 118.05 364.32l-1113.3 1087.86 263.56 1534.62c29.52 175.03-153.66 308.35-310.38 224.9l-1378.91-724.57-1377.9 724.57c-156.72 82.43-339.9-50.88-310.38-224.9l263.57-1534.62-1115.35-1086.85c-127.21-124.15-56.99-338.88 118.05-364.32l1540.72-223.88L3617.4 1447c79.37-159.77 305.3-159.77 383.65-1.01z" fill="url(#c)"/><path d="M4691.02 2842.2l-689.97-1396.21c-39.69-79.38-114.99-119.07-191.31-119.07v2643.86l881.28-1128.58z" fill="url(#d)"/><path d="M5235.47 4518.27l1115.34-1086.85c63.09-61.06 77.34-144.5 54.95-215.74l-2595.01 756.11 1424.72 546.48z" fill="url(#e)"/><path d="M5413.55 6261.51L3809.74 3970.78v1582.44l1377.89 724.57c79.38 41.73 164.86 28.5 225.92-16.28z" fill="url(#f)"/><path d="M3809.74 3970.78l-1425.73 547.49-262.56 1534.62c-15.27 86.5 23.41 163.84 84.46 208.62l1603.83-2290.73z" fill="url(#g)"/><path d="M1214.72 3214.66l2595.02 756.12-881.29-1128.58-1540.72 223.89c-88.54 13.23-150.62 75.3-173.01 148.57z" fill="url(#h)"/><path d="M2384.01 4518.27L1269.68 3431.42c-63.09-61.06-77.34-144.5-54.96-215.74l2595.02 756.11-1425.73 546.48z" fill="url(#a)"/></g></svg>