<svg width="40" height="40" fill="#473d00" version="1.2" baseProfile="tiny" xmlns="http://www.w3.org/2000/svg" viewBox="-63 65 128 128"><path d="M11.3 89.8c7.2 0 12.4 5.9 13.4 9.2l8.8 29c1.8 6.2-6.2 8.8-8.1 2.7l-8-26.6H13l13.3 47.3H13.6v36.9c0 6.3-9.5 6.3-9.5 0v-37.2H-.7v37.1c0 6.4-9.5 6.4-9.5 0v-36.8h-12.7l13.2-47.3h-4.4l-7.9 26.7c-1.9 5.8-9.9 3.4-8.1-2.8l8.8-29c.9-3.3 5.1-9.2 12.4-9.2h20.2zm-9.6-2.2C7.4 87.6 12 83 12 77.3 12 71.6 7.4 67 1.7 67-4 67-8.5 71.6-8.5 77.3-8.5 83-4 87.6 1.7 87.6"/></svg>